<svg width="47" height="52" fill="none" xmlns="http://www.w3.org/2000/svg"><path d="M.545.62C.373 3.917.297 6.92.29 9.72a6.27 6.27 0 012.404-.492c3.54 0 6.444 2.905 6.444 6.444 0 3.54-2.92 6.378-6.444 6.378a6.513 6.513 0 01-1.98-.314c1.432 13.966 5.529 18.897 10.015 21.792 2.342 1.51 4.87 2.458 7.28 3.766 1.976 1.072 3.872 2.438 5.372 4.545 1.499-2.106 3.39-3.472 5.361-4.545 2.404-1.307 4.923-2.254 7.257-3.765 4.47-2.894 8.552-7.825 9.984-21.787a6.248 6.248 0 01-1.915.308c-3.524 0-6.443-2.838-6.443-6.377 0-3.54 2.903-6.445 6.443-6.445.864 0 1.67.193 2.405.511a184.344 184.344 0 00-.257-9.118C39.476 2.094 31.4 2.803 23.39 2.874h-.018C15.36 2.804 7.284 2.094.545.62zm34.452 4.455l-3.072 10.556-2.033-.592 1.303-4.478-9.642 7.21-1.267-1.696 14.71-11zm-23.267.114l9.258 6.742-1.246 1.711-3.89-2.832 3.941 11.726-2.006.675L11.73 5.189zm15.914 11.29l14.657 11.095-11.13-.054.01-2.118 4.775.024-9.59-7.26 1.278-1.688zm-13.86 4.271l1.226 1.725-4.101 2.917 11.883-.019.003 2.117-18.53.03 9.518-6.77zm13.343 2.379l2.017.643-5.595 17.56-3.54-10.928 2.014-.652 1.51 4.658 3.593-11.281z" fill="#fff"/></svg>