<svg xmlns="http://www.w3.org/2000/svg"><symbol id="ico-key" viewBox="0 0 22 21"><path d="M14.5 6.5L18 3m2-2l-2 2 2-2zm-9.61 9.61a5.5 5.5 0 11-7.778 7.778 5.5 5.5 0 017.777-7.777v-.001zm0 0L14.5 6.5l-4.11 4.11zM14.5 6.5l3 3L21 6l-3-3-3.5 3.5z" stroke-linecap="round" stroke-linejoin="round" fill="none"/></symbol><symbol id="ico-bow" viewBox="0 0 24 24"><g clip-path="url(#clip0_45_473)"><path d="M3.65 23.445l.446-3.312-3.254.524 1.946-2.628L2.266 2.9A5.467 5.467 0 011.056.655c3.478 2.617 7.166 3.357 10.482 4.753L9.854 7.09C7.364 5.908 4.896 5.1 3.172 3.747l.454 13.15.377-.51.104-.21h3.342L16.815 5.53a16.33 16.33 0 012 2.093L8.039 16.706v3.346l-.556.43 12.825.5c-1.406-1.705-2.195-4.176-3.346-6.676l1.713-1.714c1.37 3.292 2.11 6.941 4.7 10.383a5.703 5.703 0 01-2.184-1.107l-.001.024-14.786-.576-2.755 2.129zm1.153-1.999l2.36-1.824v-2.569H4.652l-.029.007-1.798 2.39 2.297-.37-.319 2.366zm11.63-7.85a17.31 17.31 0 00-1.246-1.77l1.44-1.213c.523.41 1.058.805 1.597 1.192l-1.791 1.79zm4.688-4.207c-1.676-2.663-3.534-4.722-6.314-6.374 2.772-.97 5.554-1.748 8.381-2.061-.408 2.843-1.124 5.651-2.067 8.435zm-8.63-.27a21.026 21.026 0 00-1.987-1.439l1.756-1.756c.41.683.873 1.31 1.375 1.895l-1.143 1.3z"/></g><defs><clipPath id="clip0_45_473"><path transform="matrix(1 0 0 -1 0 24)" d="M0 0h24v24H0z"/></clipPath></defs></symbol><symbol id="ico-coin" viewBox="0 0 24 24"><path d="M11.999 2c-3.36 0-6.383.994-8.547 2.559C1.285 6.124 0 8.239 0 10.536s1.285 4.407 3.452 5.977c2.159 1.565 5.187 2.559 8.547 2.559 3.354 0 6.388-.994 8.555-2.559C22.71 14.943 24 12.833 24 10.536s-1.29-4.412-3.446-5.977C18.387 2.993 15.359 2 11.999 2zm.153 1.132l-.01 1c-.306-.006-.612.01-.918.026l-.061-.999c.331-.019.657-.027.989-.027zm.968.032c.327.02.658.05.984.096l-.117.989c-.3-.054-.576-.059-.912-.091l.045-.994zm-2.936.086l.117.993c-.306.033-.612.091-.918.145l-.168-.983c.337-.065.688-.114.969-.155zm4.9.17c.32.069.642.138.958.236l-.245.961c-.296-.08-.602-.15-.902-.208l.188-.989zM8.48 4.59c-.3.086-.612.182-.882.273l-.321-.945c.306-.102.678-.225.984-.312.081.322.148.67.219.985zm8.499-.635c.31.112.627.23.928.369l-.378.918c-.28-.133-.57-.235-.856-.347l.306-.94zm-10.605.326l.373.913c-.311.15-.551.257-.826.412l-.444-.887c.326-.187.571-.294.897-.438zm12.42.491l.005.006c.3.176.612.358.856.534l-.525.833a9.078 9.078 0 00-.775-.486l-.005-.005c.158-.289.296-.588.444-.882zm-14.173.47c.168.283.336.561.514.839a8.34 8.34 0 00-.729.556l-.599-.775c.334-.374.656-.55.814-.62zm15.84.7c.255.235.515.46.74.732l-.705.673c-.219-.23-.438-.465-.647-.641l.612-.764zm-16.71 1.33a7.259 7.259 0 00-.56.716l-.775-.582c.244-.326.412-.572.657-.828.185.208.46.475.678.694zm8.782-.465c.683 1.266 1.28 2.597 1.902 3.9L12.534 8.35l-1.397 1.726-.8-.545c.734-.908 1.463-1.816 2.197-2.725zm-7.224.63c1.723.909 3.365 2.164 4.996 3.265L6.824 9.185l1.346 4.561 4.364.337 4.38-.337-.48 1.037-3.9.299-5.078-.39L5.31 7.438zm14.489.006c-.907 2.057-1.866 4.097-2.81 6.138l1.301-4.402-2.916 1.26-.434-.897L19.8 7.443zm2.034.07c.189.304.362.64.505.94l-.867.416c-.117-.283-.275-.54-.423-.8l.785-.556zM1.891 8.35l.867.417c-.127.272-.213.56-.285.855l-.917-.257c.09-.422.182-.684.335-1.015zM22.66 9.505c.056.385.107.748.107 1.106l-.953-.016c-.02-.305-.03-.62-.087-.876.311-.07.622-.145.933-.214zm-20.293.994c.005.31.035.614.081.876l-.933.208a10.077 10.077 0 01-.086-1.106l.938.022zm19.35.988l.928.208c-.077.369-.21.753-.337 1.047l-.866-.417a7.07 7.07 0 00.275-.838zm-19.019.753a8.1 8.1 0 00.408.79l-.79.556a9.324 9.324 0 01-.515-.962c.275-.133.593-.267.897-.384zm18.31.881l.79.561a8.926 8.926 0 01-.637.844c-.244-.245-.459-.46-.698-.689v-.005c.209-.24.398-.492.545-.71zM4.285 14.403l-.61.764a8.3 8.3 0 01-.738-.737l.703-.673c.222.219.441.47.645.646zm-4.24-.187c.088.69.286 1.352.587 1.982v-1.084a9.231 9.231 0 01-.586-.898zm23.904 0c-.224.401-.49.786-.78 1.149v1.212a6.525 6.525 0 00.78-2.36zm-4.135.257l.597.774a9.532 9.532 0 01-.806.62l-.525-.833a9.33 9.33 0 00.734-.561zm-14.81.496c.25.182.515.342.78.497l-.459.876c-.296-.16-.57-.358-.851-.54l.53-.832zm13.296.545l.444.887c-.29.166-.587.305-.892.444l-.378-.92a8.71 8.71 0 00.826-.41zm-11.705.369c.275.134.57.23.856.347l-.306.946c-.31-.107-.617-.246-.923-.374l.373-.919zm-5.01.331V17.7a9.4 9.4 0 00.857.913v-1.634a12.09 12.09 0 01-.856-.764zm15.033.054l.31.945c-.32.112-.667.208-.948.294l-.244-.967c.316-.075.606-.192.882-.272zm5.598.133c-.27.251-.551.497-.852.727v1.66c.306-.272.592-.56.852-.86v-1.527zm-13.888.112c.296.08.596.15.897.214l-.178.983c-.326-.064-.643-.15-.959-.235l.24-.962zm6.51.235l.184.983c-.337.059-.683.123-.974.155l-.117-.988c.326-.059.612-.107.908-.15zm-4.7.134c.306.043.612.075.923.096l-.067.993a15.146 15.146 0 01-.979-.096l.123-.993zm2.875.101l.051 1c-.346.026-.729.042-1.09.026l.004-.994c.347 0 .689-.01 1.035-.032zm-9.618.684v1.736c.327.24.691.476.992.652v-1.8a11.89 11.89 0 01-.992-.588zm17.016.123c-.321.203-.653.39-1 .566v1.811c.352-.198.684-.406 1-.625V17.79zm-15.07.93v1.842c.341.16.698.315 1.065.454v-1.875a14.382 14.382 0 01-1.066-.422zm13.117.085c-.346.144-.703.278-1.065.4v1.88a14.96 14.96 0 001.065-.432v-1.848zM7.36 19.44v1.896c.337.101.683.192 1.035.272v-1.912a15.8 15.8 0 01-1.035-.256zm9.08.053c-.336.09-.683.17-1.035.24v1.913c.352-.075.699-.155 1.035-.252v-1.901zm-7.091.374v1.923c.346.059.703.101 1.065.139v-1.934a16.641 16.641 0 01-1.065-.128zm5.113.027c-.377.053-.754.096-1.142.122v1.934a19.75 19.75 0 001.142-.128v-1.928zm-3.095.16v1.933c.357.017.638.011.995.011v-1.933c-.332 0-.704.005-.995-.011z"/></symbol><symbol id="ico-download" viewBox="0 0 24 24"><path d="M12 18.023l4.67-4.669h5.976L12 24 1.354 13.354h5.977L12 18.024z"/><path d="M12 23.953L1.354 13.354h5.977L12 17.977l4.67-4.67M12.002 6.66L8.898 9.766l3.105 3.103 3.103-3.104-3.104-3.103z"/><path d="M12 12.887L8.918 9.76 12 6.677M11.992.006L8.888 3.11l3.104 3.104 3.104-3.104L11.992.006z"/><path d="M12 6.21L8.918 3.128 12 0"/></symbol><symbol id="ico-helmet" viewBox="0 0 24 24"><path d="M12.613 15.546h-1.224l-.622-2.119-3.281-1.026.051 2.042 2.155 2.45.828-.74.627 7.347-5.616-6.332.998-3.015-.535-6.487 1.188-.508c.946 3.694 3.76 4.995 3.76 4.995L12 10.655l1.06 1.498s2.812-1.3 3.758-4.995l1.188.508-.535 6.487.998 3.015-5.616 6.332.628-7.347.828.74 2.155-2.45.05-2.042-3.28 1.026-.622 2.12zm6.469 3.358l-3.847 3.974 2.921-1.45.314 1.243 2.654-1.865-2.042-1.902zm-14.163 0l3.847 3.974-2.921-1.45-.314 1.243-2.653-1.865 2.041-1.902zm13.705-6.098l5.205-3.021C24.857.028 21.072-.61 17.375 1.463c0 0 5.867-1.435 3.399 5.669l-1.841.762-.309 4.912zm-13.247 0L.171 9.785C-.856.028 2.93-.61 6.627 1.463c0 0-5.87-1.435-3.4 5.669l1.842.762.308 4.912zm6.624-7.86l3.471 2.165s-.165 1.814-2.18 3.353L12 7.784l-1.291 2.68C8.694 8.924 8.53 7.11 8.53 7.11L12 4.945z"/></symbol><symbol id="ico-msg" viewBox="0 0 24 24"><path d="M23 16.633h-3.33L18.954 21l-2.313-4.367H7.875v-2.497h9.009v-7.84H23v10.337zM16.125 3v10.337H7.36l-2.314 4.369-.716-4.369H1V3h15.125zm-9.78 6.969c0-.507-.581-.76-.921-.402-.34.358-.1.97.381.97.298 0 .54-.255.54-.568zm2.89 0c-.004-.506-.585-.755-.923-.397-.338.359-.097.969.383.969.3 0 .541-.257.54-.572zm2.889 0c0-.507-.581-.76-.921-.402-.34.358-.1.97.381.97.298 0 .54-.255.54-.568z"/></symbol><symbol id="ico-scroll" viewBox="0 0 24 24"><path d="M14.905 1c-.914 0-1.798.037-2.634.128l-.863 2.28-.255-2.117c-.13.025-.26.05-.39.078-.472.103-.784.382-1.054.786-.27.405-.463.926-.629 1.407a33.092 33.092 0 00-1.112 4.155c.312.27.624.545.93.815l1.595-.93 1.757 1.38 2.697-1.042 3.17 1.295-.354.883-2.827-1.153-2.842 1.095-1.673-1.317-.775.45c1.019.914 2.006 1.818 2.936 2.707l.728-.339 1.761.852 1.621-.693 1.258 1.232-.644.687-.821-.798-1.434.618-1.715-.835c.358.354.706.698 1.044 1.042l.088.095 1.014 4.034-.405-.301-2.755.02-1.98-.94-2.203.772-.3-.9 2.556-.898 2.135 1.015 1.284-.01-3.674-2.734c-1.024.243-2.047.148-3.019-.196-.218 2.348-.307 4.531-.364 6.276-.02.566.14 1.216.39 1.719.255.502.608.814.78.85.27.064.987.17 1.958.27l.645-2.061.992 2.204c.868.064 1.819.106 2.78.117 1.466.015 2.967-.048 4.261-.249a9.409 9.409 0 002.115-.55c-.613-.27-1.122-.56-1.512-.877-.577-.471-.946-1.02-.899-1.634v.01c.28-5.097.561-9.982 1.575-15.121l.005-.021.005-.021c.275-.947.93-2.108 1.876-2.952a60.03 60.03 0 00-2.271-.3l-1.159 1.338-.114-1.464a39.398 39.398 0 00-2.983-.155h-.296V1zm7.717 1.08a5.173 5.173 0 00-.692.674c.63.432 1.112 1.236 1.133 1.955a1.55 1.55 0 01-.4 1.131c-.301.339-.81.656-1.642.836l.197.93c.967-.211 1.679-.608 2.141-1.131a2.55 2.55 0 00.64-1.798c-.032-1.02-.577-1.987-1.377-2.596zM.02 2.268c-.013.085-.02.181-.02.297.005.407.105.96.303 1.595.177.566.43 1.19.746 1.84.552-.28 1.07-.581 1.476-.957a7.654 7.654 0 01-.967 1.93c.215.38.449.761.7 1.137a3.879 3.879 0 001.533-1.38c-.171.846-.44 1.618-.95 2.21.34.45.702.888 1.08 1.295.451-.492.81-1.11 1.075-1.845.197.978.135 1.866-.296 2.612.415.38.847.724 1.288 1.01.317-.74.463-1.618.442-2.628.478 1.253.587 2.268.499 3.146 1.05.486 2.12.634 3.185.322l.218-.068 3.601 2.675-.306-1.206C9.833 10.403 4.512 5.967.02 2.268zm14.932 2.749l1.725.73 1.626-.524.281.91-1.949.628-1.746-.74-1.496.429-.25-.92 1.809-.513zm5.575 12.488c-.036 0-.067.005-.104.005a3.283 3.283 0 00-.576.07l.176.93c.634-.122 1.04-.021 1.273.132.23.153.328.36.333.66.005.493-.364 1.217-1.21 1.72.28.153.618.311 1.002.46.748-.614 1.149-1.418 1.143-2.19a1.756 1.756 0 00-.758-1.448c-.349-.228-.78-.344-1.279-.339z"/></symbol><symbol id="ico-scroll-2" viewBox="0 0 24 24"><path d="M17.95 0c-.793-.008-1.418.234-1.655.748-1.158 2.514-2.478 4.417-4.02 5.945.154.051.307.116.454.191.66.34 1.284.902 1.795 1.564.51.662.907 1.425 1.056 2.205.038.198.06.4.06.6 1.98-1.235 4.323-2.09 7.16-2.6.758-.138 1.203-1.452 1.089-2.974l-1.787-.05 1.553-1.258c-.21-.736-.56-1.458-1.075-2.065-.79-.928-1.852-1.59-2.884-1.96l-1.32.79.143-1.09A4.395 4.395 0 0017.951 0zm-6.436 7.51a.752.752 0 00-.153.024c-.609.52-1.251.993-1.929 1.433.043.017.085.034.127.053.718.314 1.395.869 1.956 1.552.68.828 1.2 1.873 1.303 2.927.525-.525 1.08-1.01 1.67-1.455.208-.333.25-.734.158-1.214-.11-.58-.44-1.238-.877-1.806-.437-.567-.985-1.045-1.477-1.298-.308-.159-.567-.226-.779-.216zM8.366 9.704c-.07.003-.136.014-.201.029-1.881 1.052-4.02 1.925-6.472 2.838l.087.008c.54.059 1.072.254 1.584.551l1.916-.833-.804 1.659c.305.275.6.581.882.912a12.222 12.222 0 012.394 4.465v.002c.151.533.26 1.06.32 1.571 1.068-2.455 2.257-4.524 3.678-6.234.371-1.09-.111-2.454-.969-3.5-.48-.584-1.066-1.05-1.603-1.284-.302-.132-.573-.193-.812-.184zm7.2 2.78c-.372.256-.735.533-1.09.827 1.991.47 3.099 1.81 4.1 3.15.532.712 1.047 1.425 1.684 2.063 1.23.464 2.195.323 3.249-.757-4.685-1.408-4.886-4.694-7.943-5.283zM1.431 13.51c-.553.011-.929.292-1.187.841-.295.628-.362 1.646.022 2.893.292.949.84 1.911 1.462 2.616.621.705 1.316 1.12 1.798 1.136h.002c.188.007.333-.035.447-.14l-.009-.009.106-.106c.04-.06.078-.13.112-.212.142-.35.166-.94-.094-1.673-.35-.984-.972-1.619-1.697-1.763l-1.167-.231 1.007-.634 1.955-1.226c-.846-.853-1.756-1.4-2.51-1.481a1.945 1.945 0 00-.247-.011zm12.01.274l-1.248 1.286c5.106.906 2.82 7.148 8.1 8.931l-1.26-2.904c1.665.82 3.425 1.147 4.967.61-6.902-2.126-4.896-6.436-10.56-7.923zM4.824 15.72l-1.32.829c.67.43 1.18 1.143 1.48 1.99.131.366.21.72.242 1.053l1.192-1.185a11.582 11.582 0 00-1.594-2.687zm1.951 3.669l-2.138 2.129-.008-.008c-.216.2-.48.343-.772.402 1.183.754 2.27.98 2.888.485.217-.174.358-.424.43-.73a8.686 8.686 0 00-.338-2.074 7.92 7.92 0 00-.062-.204z"/></symbol>
<symbol id="ico-calendar" viewBox="0 0 2048 2048">
        <defs>
        </defs>
        <g id="Layer_x0020_1">
            <g id="_442651776">
                <path id="_442653336" d="M350.778 442.758h1346.44c43.036 0 82.14 17.584 110.467 45.91 28.326 28.328 45.91 67.431 45.91 110.467v1036.49c0 43.036-17.584 82.138-45.91 110.466-28.328 28.326-67.431 45.91-110.467 45.91H350.778c-43.036 0-82.14-17.584-110.467-45.91-28.326-28.328-45.91-67.43-45.91-110.466V599.135c0-43.036 17.584-82.139 45.91-110.466 28.328-28.327 67.432-45.911 110.467-45.911zm1346.44 64.002H350.778c-25.37 0-48.46 10.403-65.217 27.16-16.756 16.757-27.16 39.845-27.16 65.215v1036.49c0 25.37 10.404 48.458 27.16 65.216 16.758 16.756 39.847 27.16 65.217 27.16h1346.44c25.37 0 48.46-10.404 65.217-27.16 16.756-16.758 27.16-39.846 27.16-65.216V599.135c0-25.37-10.404-48.458-27.16-65.216-16.757-16.756-39.847-27.16-65.217-27.16z"/>
                <path id="_442653984" d="M226.401 774.696c-17.673 0-32 14.328-32 32 0 17.674 14.327 32.002 32 32.002h1595.2c17.673 0 32-14.328 32-32.001s-14.327-32.001-32-32.001h-1595.2z"/>
                <path id="_442653720" d="M512.735 532.838c29.789 0 56.761 12.078 76.287 31.603 19.524 19.526 31.603 46.499 31.603 76.287 0 29.789-12.079 56.763-31.602 76.287-19.526 19.524-46.5 31.602-76.288 31.602-29.789 0-56.763-12.079-76.286-31.602-19.525-19.526-31.603-46.5-31.603-76.287 0-29.788 12.079-56.761 31.603-76.287 19.523-19.524 46.497-31.603 76.286-31.603zm31.037 76.853c-7.94-7.94-18.914-12.851-31.037-12.851-12.123 0-23.096 4.912-31.036 12.851-7.94 7.94-12.852 18.914-12.852 31.037 0 12.123 4.913 23.097 12.852 31.036 7.94 7.94 18.913 12.852 31.036 12.852 12.123 0 23.098-4.913 31.037-12.852 7.94-7.94 12.852-18.913 12.852-31.036 0-12.123-4.913-23.097-12.852-31.037z"/>
                <path id="_442653960" d="M1535.27 532.838c29.789 0 56.763 12.08 76.286 31.603 19.524 19.526 31.603 46.499 31.603 76.287 0 29.788-12.078 56.76-31.603 76.287-19.523 19.523-46.497 31.602-76.286 31.602s-56.761-12.078-76.287-31.602c-19.524-19.524-31.603-46.498-31.603-76.287 0-29.788 12.079-56.761 31.603-76.287 19.526-19.525 46.498-31.603 76.287-31.603zm31.036 76.853c-7.94-7.94-18.913-12.851-31.036-12.851-12.123 0-23.098 4.912-31.037 12.851-7.94 7.94-12.852 18.914-12.852 31.037 0 12.123 4.913 23.097 12.852 31.036 7.94 7.94 18.914 12.852 31.037 12.852 12.123 0 23.096-4.913 31.036-12.852 7.94-7.94 12.852-18.913 12.852-31.036 0-12.123-4.913-23.097-12.852-31.037z"/>
                <path id="_442653888" d="M544.737 287.999c0-17.673-14.328-32-32-32-17.674 0-32.002 14.327-32.002 32v276.975c0 17.673 14.328 32 32.001 32s32.001-14.327 32.001-32V287.999z"/>
                <path id="_442653288"  d="M1567.26 287.999c0-17.673-14.328-32-32-32-17.674 0-32.002 14.327-32.002 32v276.975c0 17.673 14.328 32 32.001 32s32.001-14.327 32.001-32V287.999z"/>
                <path id="_442653216"  d="M935.691 940.389c-17.673 0-32 14.328-32 32 0 17.674 14.327 32.002 32 32.002h114.428c17.673 0 32-14.328 32-32.001s-14.327-32.001-32-32.001H935.691z"/>
                <path id="_442652880"  d="M1241.66 940.389c-17.673 0-32 14.328-32 32 0 17.674 14.327 32.002 32 32.002h114.428c17.673 0 32-14.328 32-32.001s-14.327-32.001-32-32.001H1241.66z"/>
                <path id="_442653168"  d="M1531.88 940.389c-17.673 0-32 14.328-32 32 0 17.674 14.327 32.002 32 32.002h114.428c17.673 0 32-14.328 32-32.001s-14.327-32.001-32-32.001H1531.88z"/>
                <path id="_442653120"  d="M401.694 1147.69c-17.673 0-32 14.328-32 32 0 17.674 14.327 32.002 32 32.002h114.428c17.673 0 32-14.328 32-32.001s-14.327-32.001-32-32.001H401.694z"/>
                <path id="_442652784"  d="M668.692 1147.69c-17.673 0-32 14.328-32 32 0 17.674 14.327 32.002 32 32.002h114.429c17.673 0 32-14.328 32-32.001s-14.327-32.001-32-32.001H668.692z"/>
                <path id="_442653072"  d="M935.691 1147.69c-17.673 0-32 14.328-32 32 0 17.674 14.327 32.002 32 32.002h114.428c17.673 0 32-14.328 32-32.001s-14.327-32.001-32-32.001H935.691z"/>
                <path id="_442652736"  d="M1241.66 1147.69c-17.673 0-32 14.328-32 32 0 17.674 14.327 32.002 32 32.002h114.428c17.673 0 32-14.328 32-32.001s-14.327-32.001-32-32.001H1241.66z"/>
                <path id="_442652208"  d="M1531.88 1147.69c-17.673 0-32 14.328-32 32 0 17.674 14.327 32.002 32 32.002h114.428c17.673 0 32-14.328 32-32.001s-14.327-32.001-32-32.001H1531.88z"/>
                <path id="_442651992"  d="M401.694 1354.99c-17.673 0-32 14.328-32 32 0 17.674 14.327 32.002 32 32.002h114.428c17.673 0 32-14.328 32-32.001s-14.327-32.001-32-32.001H401.694z"/>
                <path id="_442651872"  d="M668.692 1354.99c-17.673 0-32 14.328-32 32 0 17.674 14.327 32.002 32 32.002h114.429c17.673 0 32-14.328 32-32.001s-14.327-32.001-32-32.001H668.692z"/>
                <path id="_442652088"  d="M935.691 1354.99c-17.673 0-32 14.328-32 32 0 17.674 14.327 32.002 32 32.002h114.428c17.673 0 32-14.328 32-32.001s-14.327-32.001-32-32.001H935.691z"/>
                <path id="_442651968"  d="M1241.66 1354.99c-17.673 0-32 14.328-32 32 0 17.674 14.327 32.002 32 32.002h114.428c17.673 0 32-14.328 32-32.001s-14.327-32.001-32-32.001H1241.66z"/>
                <path id="_442652424"  d="M1531.88 1354.99c-17.673 0-32 14.328-32 32 0 17.674 14.327 32.002 32 32.002h114.428c17.673 0 32-14.328 32-32.001s-14.327-32.001-32-32.001H1531.88z"/>
                <path id="_442652064"  d="M401.694 1562.29c-17.673 0-32 14.328-32 32 0 17.674 14.327 32.002 32 32.002h114.428c17.673 0 32-14.328 32-32.001s-14.327-32.001-32-32.001H401.694z"/>
                <path id="_442652256"  d="M668.692 1562.29c-17.673 0-32 14.328-32 32 0 17.674 14.327 32.002 32 32.002h114.429c17.673 0 32-14.328 32-32.001s-14.327-32.001-32-32.001H668.692z"/>
                <path id="_442652520"  d="M935.691 1562.29c-17.673 0-32 14.328-32 32 0 17.674 14.327 32.002 32 32.002h114.428c17.673 0 32-14.328 32-32.001s-14.327-32.001-32-32.001H935.691z"/>
            </g>
        </g>
        <path style="fill:none" d="M0 0h2048v2048H0z"/>
    </symbol>
	</svg>